# xmcd CD database file
# Copyright (C) 1997 Ti Kan
#
# Track frame offsets:
#  150
#  11420
#  28940
#  42712
#  64950
#  79182
#  104040
#  121042
#  133335
#  145655
#  173920
#  186025
#  196802
#  224242
#
# Disc length: 3258 seconds
#
# Revision: 1
# Processed by: cddbd v1.4b41PL1 Copyright (c) Steve Scherf et al.
# Submitted via: CDWizzard Release:4.24
#
DISCID=d70cb80e
DTITLE=CEBERANO KATE and HER SEPTET - LIVE
DYEAR=1900
DGENRE=
TTITLE0=I'M BEGINNING TO SEE THE LIGHT
TTITLE1=MY BABY JUST CARES FORE ME
TTITLE2=MIDNIGHT SUN
TTITLE3=LOVE ME OR LEAVE ME
TTITLE4=ILL WIND
TTITLE5=MEMORY SERVES
TTITLE6=TWO SLEEPY PEOPLE
TTITLE7=HEART
TTITLE8=I'M HIP
TTITLE9=LUSH LIFE
TTITLE10=ONE NOTE SAMBA
TTITLE11=AND THE ANGELS SING
TTITLE12=MASQUERADE IS  OVER - THE
TTITLE13=YEAH YEAH
EXTD=
EXTT0=
EXTT1=
EXTT2=
EXTT3=
EXTT4=
EXTT5=
EXTT6=
EXTT7=
EXTT8=
EXTT9=
EXTT10=
EXTT11=
EXTT12=
EXTT13=
PLAYORDER=
